# xmcd CD database file
#
# Track frame offsets:
#	150
#	14775
#	27976
#	43754
#	55550
#	66271
#	82372
#	99323
#	111947
#	125344
#	144246
#	159614
#	174650
#	186437
#	196427
#	209911
#	222256
#	240852
#	257110
#	271956
#
# Disc length: 3797 seconds
#
# Revision: 10
# Processed by: cddbd v1.5.2PL0 Copyright (c) Steve Scherf et al.
# Submitted via: CDex 1.90
#
DISCID=310ed314
DTITLE=Various Artist - Country Songs Disc 1
DYEAR=2007
DGENRE=Country
TTITLE0=John Denver - Take Me Home, Country Roads
TTITLE1=Lynn Anderson - Rose Garden
TTITLE2=Brenda Lee - You're The One That I Want
TTITLE3=Kenny Rogers - Me And Bobby McGee
TTITLE4=Roger Miller - King Of The Road
TTITLE5=Don Gibson - Green, Green Grass Of Home
TTITLE6=Lynn Anderson - Blue Bayou
TTITLE7=Johnny Cash - Ring Of Fire
TTITLE8=Billie Joe Spears - Fever
TTITLE9=John Denver - Rocky Mountain High
TTITLE10=Kenny Rogers - For The Good Times
TTITLE11=Lynn Anderson - Desperado
TTITLE12=Wanda Jackson - Sweet Dreams
TTITLE13=Brenda Lee - I Am Sorry
TTITLE14=Kenny Rogers - Ruby Don't Take Your Love To Town
TTITLE15=Lynn Anderson - Stand By Your Man
TTITLE16=Bellamy Brothers - If I Said You Have A Beautiful Body Would You Hold It Against Me
TTITLE17=Billie Joe Spears - Blanket On The Ground
TTITLE18=Frankie Lana - Sixteen Tons
TTITLE19=Stu Stevens - Love Me Tender
EXTD=YEAR: 2007
EXTT0=
EXTT1=
EXTT2=
EXTT3=
EXTT4=
EXTT5=
EXTT6=
EXTT7=
EXTT8=
EXTT9=
EXTT10=
EXTT11=
EXTT12=
EXTT13=
EXTT14=
EXTT15=
EXTT16=
EXTT17=
EXTT18=
EXTT19=
PLAYORDER=
